{
	"asset":{
		"generator":"Khronos glTF Blender I/O v3.5.30",
		"version":"2.0"
	},
	"extensionsUsed":[
		"KHR_materials_specular",
		"KHR_materials_ior",
		"KHR_materials_unlit",
		"KHR_materials_clearcoat",
		"KHR_materials_transmission"
	],
	"scene":0,
	"scenes":[
		{
			"name":"Scene",
			"nodes":[
				0,
				1
			]
		}
	],
	"nodes":[
		{
			"mesh":0,
			"name":"\u5730\u9762",
			"scale":[
				2.6374480724334717,
				1.6230188608169556,
				1.9313921928405762
			]
		},
		{
			"mesh":1,
			"name":"\u95e8",
			"rotation":[
				0.70710688829422,
				0,
				0,
				0.7071066498756409
			],
			"scale":[
				2.8805556297302246,
				1.038001298904419,
				7.023161888122559
			],
			"translation":[
				-24.253759384155273,
				8.815216064453125,
				0
			]
		}
	],
	"materials":[
		{
			"doubleSided":true,
			"extensions":{
				"KHR_materials_specular":{
					"specularColorFactor":[
						0.08298171756416238,
						0.08298171756416238,
						0.08298171756416238
					]
				},
				"KHR_materials_ior":{
					"ior":3.999999761581421
				}
			},
			"name":"\u6750\u8d28.001",
			"pbrMetallicRoughness":{
				"baseColorTexture":{
					"index":0
				},
				"metallicFactor":0.10126582533121109,
				"roughnessFactor":0.12025317549705505
			}
		},
		{
			"doubleSided":true,
			"extensions":{
				"KHR_materials_unlit":{}
			},
			"name":"\u6750\u8d28.006",
			"pbrMetallicRoughness":{
				"baseColorTexture":{
					"index":1,
					"texCoord":0
				},
				"metallicFactor":0,
				"roughnessFactor":0.9
			}
		},
		{
			"doubleSided":true,
			"extensions":{
				"KHR_materials_unlit":{}
			},
			"name":"\u6750\u8d28.009",
			"pbrMetallicRoughness":{
				"baseColorTexture":{
					"index":2,
					"texCoord":0
				},
				"metallicFactor":0,
				"roughnessFactor":0.9
			}
		},
		{
			"doubleSided":true,
			"name":"\u6750\u8d28.010",
			"pbrMetallicRoughness":{
				"baseColorFactor":[
					0.002496343804523349,
					0.002496343804523349,
					0.002496343804523349,
					1
				],
				"metallicFactor":0,
				"roughnessFactor":0.5
			}
		},
		{
			"doubleSided":true,
			"name":"\u6750\u8d28.011",
			"pbrMetallicRoughness":{
				"baseColorFactor":[
					0.0014263049233704805,
					0.0014263049233704805,
					0.0014263049233704805,
					1
				],
				"metallicFactor":0,
				"roughnessFactor":0.5
			}
		},
		{
			"doubleSided":true,
			"name":"\u6750\u8d28.012",
			"pbrMetallicRoughness":{
				"baseColorFactor":[
					0.0014263049233704805,
					0.0014263049233704805,
					0.0014263049233704805,
					1
				],
				"metallicFactor":0,
				"roughnessFactor":0.5
			}
		},
		{
			"doubleSided":true,
			"name":"\u6750\u8d28.013",
			"pbrMetallicRoughness":{
				"baseColorFactor":[
					0.0014263049233704805,
					0.0014263049233704805,
					0.0014263049233704805,
					1
				],
				"metallicFactor":0,
				"roughnessFactor":0.5
			}
		},
		{
			"doubleSided":true,
			"name":"\u6750\u8d28.007",
			"pbrMetallicRoughness":{
				"baseColorFactor":[
					0.800000011920929,
					0.800000011920929,
					0.800000011920929,
					1
				],
				"metallicFactor":0,
				"roughnessFactor":0.5
			}
		},
		{
			"alphaMode":"BLEND",
			"doubleSided":true,
			"extensions":{
				"KHR_materials_clearcoat":{
					"clearcoatFactor":0.12025314569473267,
					"clearcoatRoughnessFactor":0
				},
				"KHR_materials_transmission":{
					"transmissionFactor":1
				},
				"KHR_materials_specular":{
					"specularColorFactor":[
						1,
						1,
						1
					]
				},
				"KHR_materials_ior":{
					"ior":0
				}
			},
			"name":"\u6750\u8d28.002",
			"pbrMetallicRoughness":{
				"baseColorFactor":[
					0.15261517465114594,
					0.2582988142967224,
					0.938240110874176,
					0.43670883774757385
				],
				"metallicFactor":0.07594937086105347,
				"roughnessFactor":0
			}
		},
		{
			"doubleSided":true,
			"name":"\u6750\u8d28",
			"pbrMetallicRoughness":{
				"baseColorFactor":[
					0.800000011920929,
					0.800000011920929,
					0.800000011920929,
					1
				],
				"metallicFactor":0,
				"roughnessFactor":0.5
			}
		},
		{
			"doubleSided":true,
			"name":"\u6750\u8d28.016",
			"pbrMetallicRoughness":{
				"baseColorTexture":{
					"index":3
				},
				"metallicFactor":0,
				"roughnessFactor":0.5
			}
		},
		{
			"doubleSided":true,
			"name":"\u6750\u8d28.003",
			"pbrMetallicRoughness":{
				"baseColorTexture":{
					"index":4
				},
				"metallicFactor":0,
				"roughnessFactor":0.5
			}
		},
		{
			"doubleSided":true,
			"name":"\u6750\u8d28.004",
			"pbrMetallicRoughness":{
				"baseColorFactor":[
					0.16202928125858307,
					0.1301363855600357,
					0.09084172546863556,
					1
				],
				"metallicFactor":0,
				"roughnessFactor":0.5
			}
		},
		{
			"doubleSided":true,
			"name":"\u6750\u8d28.005",
			"pbrMetallicRoughness":{
				"baseColorFactor":[
					0.16202928125858307,
					0.1301363855600357,
					0.09084172546863556,
					1
				],
				"metallicFactor":0,
				"roughnessFactor":0.5
			}
		}
	],
	"meshes":[
		{
			"name":"\u5730\u9762.002",
			"primitives":[
				{
					"attributes":{
						"POSITION":0,
						"TEXCOORD_0":1,
						"TEXCOORD_1":2,
						"NORMAL":3
					},
					"indices":4,
					"material":0
				},
				{
					"attributes":{
						"POSITION":5,
						"TEXCOORD_0":6,
						"TEXCOORD_1":7,
						"NORMAL":8
					},
					"indices":9,
					"material":1
				},
				{
					"attributes":{
						"POSITION":10,
						"TEXCOORD_0":11,
						"TEXCOORD_1":12,
						"NORMAL":13
					},
					"indices":14,
					"material":2
				},
				{
					"attributes":{
						"POSITION":15,
						"TEXCOORD_0":16,
						"TEXCOORD_1":17,
						"NORMAL":18
					},
					"indices":19,
					"material":3
				},
				{
					"attributes":{
						"POSITION":20,
						"TEXCOORD_0":21,
						"TEXCOORD_1":22,
						"NORMAL":23
					},
					"indices":24,
					"material":4
				},
				{
					"attributes":{
						"POSITION":25,
						"TEXCOORD_0":26,
						"TEXCOORD_1":27,
						"NORMAL":28
					},
					"indices":29,
					"material":5
				},
				{
					"attributes":{
						"POSITION":30,
						"TEXCOORD_0":31,
						"TEXCOORD_1":32,
						"NORMAL":33
					},
					"indices":34,
					"material":6
				},
				{
					"attributes":{
						"POSITION":35,
						"TEXCOORD_0":36,
						"TEXCOORD_1":37,
						"NORMAL":38
					},
					"indices":39,
					"material":7
				},
				{
					"attributes":{
						"POSITION":40,
						"TEXCOORD_0":41,
						"TEXCOORD_1":42,
						"NORMAL":43
					},
					"indices":44,
					"material":8
				},
				{
					"attributes":{
						"POSITION":45,
						"TEXCOORD_0":46,
						"TEXCOORD_1":47,
						"NORMAL":48
					},
					"indices":49,
					"material":9
				},
				{
					"attributes":{
						"POSITION":50,
						"TEXCOORD_0":51,
						"TEXCOORD_1":52,
						"NORMAL":53
					},
					"indices":54,
					"material":10
				},
				{
					"attributes":{
						"POSITION":55,
						"TEXCOORD_0":56,
						"TEXCOORD_1":57,
						"NORMAL":58
					},
					"indices":54,
					"material":11
				}
			]
		},
		{
			"name":"\u5e73\u9762.003",
			"primitives":[
				{
					"attributes":{
						"POSITION":59,
						"TEXCOORD_0":60,
						"NORMAL":61
					},
					"indices":62,
					"material":12
				},
				{
					"attributes":{
						"POSITION":63,
						"TEXCOORD_0":64,
						"NORMAL":65
					},
					"indices":66,
					"material":13
				}
			]
		}
	],
	"textures":[
		{
			"sampler":0,
			"source":0
		},
		{
			"sampler":0,
			"source":1
		},
		{
			"sampler":0,
			"source":1
		},
		{
			"sampler":0,
			"source":2
		},
		{
			"sampler":0,
			"source":2
		}
	],
	"images":[
		{
			"bufferView":5,
			"mimeType":"image/jpeg",
			"name":"\u5c4f\u5e55\u622a\u56fe 2023-07-22 155912"
		},
		{
			"bufferView":11,
			"mimeType":"image/jpeg",
			"name":"\u5c4f\u5e55\u622a\u56fe 2023-08-13 213853"
		},
		{
			"bufferView":57,
			"mimeType":"image/png",
			"name":"\u5c4f\u5e55\u622a\u56fe 2023-08-14 211429"
		}
	],
	"accessors":[
		{
			"bufferView":0,
			"componentType":5126,
			"count":5616,
			"max":[
				13,
				1,
				21
			],
			"min":[
				-13,
				-1,
				-13
			],
			"type":"VEC3"
		},
		{
			"bufferView":1,
			"componentType":5126,
			"count":5616,
			"type":"VEC2"
		},
		{
			"bufferView":2,
			"componentType":5126,
			"count":5616,
			"type":"VEC2"
		},
		{
			"bufferView":3,
			"componentType":5126,
			"count":5616,
			"type":"VEC3"
		},
		{
			"bufferView":4,
			"componentType":5123,
			"count":8424,
			"type":"SCALAR"
		},
		{
			"bufferView":6,
			"componentType":5126,
			"count":1632,
			"max":[
				3.197608470916748,
				6.682830333709717,
				-4.422708511352539
			],
			"min":[
				1.3522437810897827,
				0.9739413261413574,
				-6.942680358886719
			],
			"type":"VEC3"
		},
		{
			"bufferView":7,
			"componentType":5126,
			"count":1632,
			"type":"VEC2"
		},
		{
			"bufferView":8,
			"componentType":5126,
			"count":1632,
			"type":"VEC2"
		},
		{
			"bufferView":9,
			"componentType":5126,
			"count":1632,
			"type":"VEC3"
		},
		{
			"bufferView":10,
			"componentType":5123,
			"count":2712,
			"type":"SCALAR"
		},
		{
			"bufferView":12,
			"componentType":5126,
			"count":912,
			"max":[
				4.385528564453125,
				5.225739479064941,
				-0.9806504249572754
			],
			"min":[
				-0.23857927322387695,
				0.9570881128311157,
				-4.265435218811035
			],
			"type":"VEC3"
		},
		{
			"bufferView":13,
			"componentType":5126,
			"count":912,
			"type":"VEC2"
		},
		{
			"bufferView":14,
			"componentType":5126,
			"count":912,
			"type":"VEC2"
		},
		{
			"bufferView":15,
			"componentType":5126,
			"count":912,
			"type":"VEC3"
		},
		{
			"bufferView":16,
			"componentType":5123,
			"count":1464,
			"type":"SCALAR"
		},
		{
			"bufferView":17,
			"componentType":5126,
			"count":2236,
			"max":[
				3.487943649291992,
				1.9744558334350586,
				-4.143251419067383
			],
			"min":[
				3.307819366455078,
				1.681748867034912,
				-4.389223098754883
			],
			"type":"VEC3"
		},
		{
			"bufferView":18,
			"componentType":5126,
			"count":2236,
			"type":"VEC2"
		},
		{
			"bufferView":19,
			"componentType":5126,
			"count":2236,
			"type":"VEC2"
		},
		{
			"bufferView":20,
			"componentType":5126,
			"count":2236,
			"type":"VEC3"
		},
		{
			"bufferView":21,
			"componentType":5123,
			"count":2880,
			"type":"SCALAR"
		},
		{
			"bufferView":22,
			"componentType":5126,
			"count":2258,
			"max":[
				1.3995920419692993,
				4.175244331359863,
				-4.143251895904541
			],
			"min":[
				1.2194678783416748,
				3.8825371265411377,
				-4.389223575592041
			],
			"type":"VEC3"
		},
		{
			"bufferView":23,
			"componentType":5126,
			"count":2258,
			"type":"VEC2"
		},
		{
			"bufferView":24,
			"componentType":5126,
			"count":2258,
			"type":"VEC2"
		},
		{
			"bufferView":25,
			"componentType":5126,
			"count":2258,
			"type":"VEC3"
		},
		{
			"bufferView":26,
			"componentType":5123,
			"count":2880,
			"type":"SCALAR"
		},
		{
			"bufferView":27,
			"componentType":5126,
			"count":2220,
			"max":[
				3.487943649291992,
				3.19337797164917,
				-4.143251419067383
			],
			"min":[
				3.307819366455078,
				2.9006710052490234,
				-4.389223098754883
			],
			"type":"VEC3"
		},
		{
			"bufferView":28,
			"componentType":5126,
			"count":2220,
			"type":"VEC2"
		},
		{
			"bufferView":29,
			"componentType":5126,
			"count":2220,
			"type":"VEC2"
		},
		{
			"bufferView":30,
			"componentType":5126,
			"count":2220,
			"type":"VEC3"
		},
		{
			"bufferView":31,
			"componentType":5123,
			"count":2880,
			"type":"SCALAR"
		},
		{
			"bufferView":32,
			"componentType":5126,
			"count":2228,
			"max":[
				3.487943649291992,
				4.175244331359863,
				-4.143251419067383
			],
			"min":[
				3.307819366455078,
				3.8825371265411377,
				-4.389223098754883
			],
			"type":"VEC3"
		},
		{
			"bufferView":33,
			"componentType":5126,
			"count":2228,
			"type":"VEC2"
		},
		{
			"bufferView":34,
			"componentType":5126,
			"count":2228,
			"type":"VEC2"
		},
		{
			"bufferView":35,
			"componentType":5126,
			"count":2228,
			"type":"VEC3"
		},
		{
			"bufferView":36,
			"componentType":5123,
			"count":2880,
			"type":"SCALAR"
		},
		{
			"bufferView":37,
			"componentType":5126,
			"count":6552,
			"max":[
				13.677287101745605,
				11.706670761108398,
				18.894306182861328
			],
			"min":[
				-13.677287101745605,
				-0.9005131125450134,
				-12.993295669555664
			],
			"type":"VEC3"
		},
		{
			"bufferView":38,
			"componentType":5126,
			"count":6552,
			"type":"VEC2"
		},
		{
			"bufferView":39,
			"componentType":5126,
			"count":6552,
			"type":"VEC2"
		},
		{
			"bufferView":40,
			"componentType":5126,
			"count":6552,
			"type":"VEC3"
		},
		{
			"bufferView":41,
			"componentType":5123,
			"count":9828,
			"type":"SCALAR"
		},
		{
			"bufferView":42,
			"componentType":5126,
			"count":240,
			"max":[
				12.151639938354492,
				9.97727108001709,
				1.304279976466205e-06
			],
			"min":[
				-7.035160064697266,
				1.2109832763671875,
				-7.91620834661444e-07
			],
			"type":"VEC3"
		},
		{
			"bufferView":43,
			"componentType":5126,
			"count":240,
			"type":"VEC2"
		},
		{
			"bufferView":44,
			"componentType":5126,
			"count":240,
			"type":"VEC2"
		},
		{
			"bufferView":45,
			"componentType":5126,
			"count":240,
			"type":"VEC3"
		},
		{
			"bufferView":46,
			"componentType":5123,
			"count":360,
			"type":"SCALAR"
		},
		{
			"bufferView":47,
			"componentType":5126,
			"count":1152,
			"max":[
				12.928080558776855,
				11.659069061279297,
				0.7906082272529602
			],
			"min":[
				-12.928080558776855,
				0.3691859245300293,
				-0.7906082272529602
			],
			"type":"VEC3"
		},
		{
			"bufferView":48,
			"componentType":5126,
			"count":1152,
			"type":"VEC2"
		},
		{
			"bufferView":49,
			"componentType":5126,
			"count":1152,
			"type":"VEC2"
		},
		{
			"bufferView":50,
			"componentType":5126,
			"count":1152,
			"type":"VEC3"
		},
		{
			"bufferView":51,
			"componentType":5123,
			"count":1728,
			"type":"SCALAR"
		},
		{
			"bufferView":52,
			"componentType":5126,
			"count":24,
			"max":[
				12.2703275680542,
				9.254671096801758,
				4.232161998748779
			],
			"min":[
				9.8088960647583,
				0.893089771270752,
				0.8483175039291382
			],
			"type":"VEC3"
		},
		{
			"bufferView":53,
			"componentType":5126,
			"count":24,
			"type":"VEC2"
		},
		{
			"bufferView":54,
			"componentType":5126,
			"count":24,
			"type":"VEC2"
		},
		{
			"bufferView":55,
			"componentType":5126,
			"count":24,
			"type":"VEC3"
		},
		{
			"bufferView":56,
			"componentType":5123,
			"count":36,
			"type":"SCALAR"
		},
		{
			"bufferView":58,
			"componentType":5126,
			"count":24,
			"max":[
				-9.720453262329102,
				9.252988815307617,
				-7.7088398933410645
			],
			"min":[
				-12.38908576965332,
				0.8914051055908203,
				-11.343033790588379
			],
			"type":"VEC3"
		},
		{
			"bufferView":59,
			"componentType":5126,
			"count":24,
			"type":"VEC2"
		},
		{
			"bufferView":60,
			"componentType":5126,
			"count":24,
			"type":"VEC2"
		},
		{
			"bufferView":61,
			"componentType":5126,
			"count":24,
			"type":"VEC3"
		},
		{
			"bufferView":62,
			"componentType":5126,
			"count":853,
			"max":[
				1,
				1.2328540086746216,
				1
			],
			"min":[
				-1,
				-0.2622424364089966,
				-1
			],
			"type":"VEC3"
		},
		{
			"bufferView":63,
			"componentType":5126,
			"count":853,
			"type":"VEC2"
		},
		{
			"bufferView":64,
			"componentType":5126,
			"count":853,
			"type":"VEC3"
		},
		{
			"bufferView":65,
			"componentType":5123,
			"count":1623,
			"type":"SCALAR"
		},
		{
			"bufferView":66,
			"componentType":5126,
			"count":856,
			"max":[
				1.0000001192092896,
				0.2629704773426056,
				1
			],
			"min":[
				-1.0000001192092896,
				-1.2284398078918457,
				-1
			],
			"type":"VEC3"
		},
		{
			"bufferView":67,
			"componentType":5126,
			"count":856,
			"type":"VEC2"
		},
		{
			"bufferView":68,
			"componentType":5126,
			"count":856,
			"type":"VEC3"
		},
		{
			"bufferView":69,
			"componentType":5123,
			"count":1623,
			"type":"SCALAR"
		}
	],
	"bufferViews":[
		{
			"buffer":0,
			"byteLength":67392,
			"byteOffset":0,
			"target":34962
		},
		{
			"buffer":0,
			"byteLength":44928,
			"byteOffset":67392,
			"target":34962
		},
		{
			"buffer":0,
			"byteLength":44928,
			"byteOffset":112320,
			"target":34962
		},
		{
			"buffer":0,
			"byteLength":67392,
			"byteOffset":157248,
			"target":34962
		},
		{
			"buffer":0,
			"byteLength":16848,
			"byteOffset":224640,
			"target":34963
		},
		{
			"buffer":0,
			"byteLength":14811,
			"byteOffset":241488
		},
		{
			"buffer":0,
			"byteLength":19584,
			"byteOffset":256300,
			"target":34962
		},
		{
			"buffer":0,
			"byteLength":13056,
			"byteOffset":275884,
			"target":34962
		},
		{
			"buffer":0,
			"byteLength":13056,
			"byteOffset":288940,
			"target":34962
		},
		{
			"buffer":0,
			"byteLength":19584,
			"byteOffset":301996,
			"target":34962
		},
		{
			"buffer":0,
			"byteLength":5424,
			"byteOffset":321580,
			"target":34963
		},
		{
			"buffer":0,
			"byteLength":35943,
			"byteOffset":327004
		},
		{
			"buffer":0,
			"byteLength":10944,
			"byteOffset":362948,
			"target":34962
		},
		{
			"buffer":0,
			"byteLength":7296,
			"byteOffset":373892,
			"target":34962
		},
		{
			"buffer":0,
			"byteLength":7296,
			"byteOffset":381188,
			"target":34962
		},
		{
			"buffer":0,
			"byteLength":10944,
			"byteOffset":388484,
			"target":34962
		},
		{
			"buffer":0,
			"byteLength":2928,
			"byteOffset":399428,
			"target":34963
		},
		{
			"buffer":0,
			"byteLength":26832,
			"byteOffset":402356,
			"target":34962
		},
		{
			"buffer":0,
			"byteLength":17888,
			"byteOffset":429188,
			"target":34962
		},
		{
			"buffer":0,
			"byteLength":17888,
			"byteOffset":447076,
			"target":34962
		},
		{
			"buffer":0,
			"byteLength":26832,
			"byteOffset":464964,
			"target":34962
		},
		{
			"buffer":0,
			"byteLength":5760,
			"byteOffset":491796,
			"target":34963
		},
		{
			"buffer":0,
			"byteLength":27096,
			"byteOffset":497556,
			"target":34962
		},
		{
			"buffer":0,
			"byteLength":18064,
			"byteOffset":524652,
			"target":34962
		},
		{
			"buffer":0,
			"byteLength":18064,
			"byteOffset":542716,
			"target":34962
		},
		{
			"buffer":0,
			"byteLength":27096,
			"byteOffset":560780,
			"target":34962
		},
		{
			"buffer":0,
			"byteLength":5760,
			"byteOffset":587876,
			"target":34963
		},
		{
			"buffer":0,
			"byteLength":26640,
			"byteOffset":593636,
			"target":34962
		},
		{
			"buffer":0,
			"byteLength":17760,
			"byteOffset":620276,
			"target":34962
		},
		{
			"buffer":0,
			"byteLength":17760,
			"byteOffset":638036,
			"target":34962
		},
		{
			"buffer":0,
			"byteLength":26640,
			"byteOffset":655796,
			"target":34962
		},
		{
			"buffer":0,
			"byteLength":5760,
			"byteOffset":682436,
			"target":34963
		},
		{
			"buffer":0,
			"byteLength":26736,
			"byteOffset":688196,
			"target":34962
		},
		{
			"buffer":0,
			"byteLength":17824,
			"byteOffset":714932,
			"target":34962
		},
		{
			"buffer":0,
			"byteLength":17824,
			"byteOffset":732756,
			"target":34962
		},
		{
			"buffer":0,
			"byteLength":26736,
			"byteOffset":750580,
			"target":34962
		},
		{
			"buffer":0,
			"byteLength":5760,
			"byteOffset":777316,
			"target":34963
		},
		{
			"buffer":0,
			"byteLength":78624,
			"byteOffset":783076,
			"target":34962
		},
		{
			"buffer":0,
			"byteLength":52416,
			"byteOffset":861700,
			"target":34962
		},
		{
			"buffer":0,
			"byteLength":52416,
			"byteOffset":914116,
			"target":34962
		},
		{
			"buffer":0,
			"byteLength":78624,
			"byteOffset":966532,
			"target":34962
		},
		{
			"buffer":0,
			"byteLength":19656,
			"byteOffset":1045156,
			"target":34963
		},
		{
			"buffer":0,
			"byteLength":2880,
			"byteOffset":1064812,
			"target":34962
		},
		{
			"buffer":0,
			"byteLength":1920,
			"byteOffset":1067692,
			"target":34962
		},
		{
			"buffer":0,
			"byteLength":1920,
			"byteOffset":1069612,
			"target":34962
		},
		{
			"buffer":0,
			"byteLength":2880,
			"byteOffset":1071532,
			"target":34962
		},
		{
			"buffer":0,
			"byteLength":720,
			"byteOffset":1074412,
			"target":34963
		},
		{
			"buffer":0,
			"byteLength":13824,
			"byteOffset":1075132,
			"target":34962
		},
		{
			"buffer":0,
			"byteLength":9216,
			"byteOffset":1088956,
			"target":34962
		},
		{
			"buffer":0,
			"byteLength":9216,
			"byteOffset":1098172,
			"target":34962
		},
		{
			"buffer":0,
			"byteLength":13824,
			"byteOffset":1107388,
			"target":34962
		},
		{
			"buffer":0,
			"byteLength":3456,
			"byteOffset":1121212,
			"target":34963
		},
		{
			"buffer":0,
			"byteLength":288,
			"byteOffset":1124668,
			"target":34962
		},
		{
			"buffer":0,
			"byteLength":192,
			"byteOffset":1124956,
			"target":34962
		},
		{
			"buffer":0,
			"byteLength":192,
			"byteOffset":1125148,
			"target":34962
		},
		{
			"buffer":0,
			"byteLength":288,
			"byteOffset":1125340,
			"target":34962
		},
		{
			"buffer":0,
			"byteLength":72,
			"byteOffset":1125628,
			"target":34963
		},
		{
			"buffer":0,
			"byteLength":15796,
			"byteOffset":1125700
		},
		{
			"buffer":0,
			"byteLength":288,
			"byteOffset":1141496,
			"target":34962
		},
		{
			"buffer":0,
			"byteLength":192,
			"byteOffset":1141784,
			"target":34962
		},
		{
			"buffer":0,
			"byteLength":192,
			"byteOffset":1141976,
			"target":34962
		},
		{
			"buffer":0,
			"byteLength":288,
			"byteOffset":1142168,
			"target":34962
		},
		{
			"buffer":0,
			"byteLength":10236,
			"byteOffset":1142456,
			"target":34962
		},
		{
			"buffer":0,
			"byteLength":6824,
			"byteOffset":1152692,
			"target":34962
		},
		{
			"buffer":0,
			"byteLength":10236,
			"byteOffset":1159516,
			"target":34962
		},
		{
			"buffer":0,
			"byteLength":3246,
			"byteOffset":1169752,
			"target":34963
		},
		{
			"buffer":0,
			"byteLength":10272,
			"byteOffset":1173000,
			"target":34962
		},
		{
			"buffer":0,
			"byteLength":6848,
			"byteOffset":1183272,
			"target":34962
		},
		{
			"buffer":0,
			"byteLength":10272,
			"byteOffset":1190120,
			"target":34962
		},
		{
			"buffer":0,
			"byteLength":3246,
			"byteOffset":1200392,
			"target":34963
		}
	],
	"samplers":[
		{
			"magFilter":9729,
			"minFilter":9987
		}
	],
	"buffers":[
		{
			"byteLength":1203640,
			"uri":"data:application/octet-stream;base64,"
		}
	]
}
