{
	"asset":{
		"generator":"Khronos glTF Blender I/O v3.5.30",
		"version":"2.0"
	},
	"extensionsUsed":[
		"KHR_materials_specular",
		"KHR_materials_ior"
	],
	"scene":0,
	"scenes":[
		{
			"name":"Scene",
			"nodes":[
				0,
				1,
				2,
				3,
				4,
				5,
				6,
				8
			]
		}
	],
	"nodes":[
		{
			"mesh":0,
			"name":"\u7a7a\u8c032",
			"rotation":[
				0.8849182724952698,
				0,
				0.46574637293815613,
				2.0358420727006887e-08
			],
			"scale":[
				2.508767604827881,
				6.785513401031494,
				2.5462067127227783
			],
			"translation":[
				-29.544574737548828,
				8.232271194458008,
				-19.562898635864258
			]
		},
		{
			"mesh":1,
			"name":"\u7a7a\u8c031",
			"rotation":[
				0.25373607873916626,
				0,
				0.967273473739624,
				6.083102732645784e-08
			],
			"scale":[
				2.5087671279907227,
				6.785497188568115,
				2.54620623588562
			],
			"translation":[
				29.116403579711914,
				8.235003471374512,
				-19.653528213500977
			]
		},
		{
			"mesh":2,
			"name":"\u5730\u9762",
			"rotation":[
				0,
				1,
				0,
				0
			],
			"scale":[
				-33.631473541259766,
				-0.5628491044044495,
				-30.961017608642578
			],
			"translation":[
				0,
				1.372168779373169,
				7.4870171546936035
			]
		},
		{
			"mesh":3,
			"name":"\u5899A2",
			"rotation":[
				0,
				0.7071068286895752,
				0,
				0.7071067094802856
			],
			"scale":[
				32.97871398925781,
				10.330100059509277,
				1.5269743204116821
			],
			"translation":[
				-34.86546325683594,
				8.736175537109375,
				6.579532146453857
			]
		},
		{
			"mesh":4,
			"name":"\u5899B2",
			"scale":[
				36.11016082763672,
				10.330100059509277,
				1.5269750356674194
			],
			"translation":[
				0,
				8.736175537109375,
				-24.882293701171875
			]
		},
		{
			"mesh":5,
			"name":"\u5899A1",
			"rotation":[
				0,
				0.7071068286895752,
				0,
				0.7071067094802856
			],
			"scale":[
				32.97871398925781,
				10.330100059509277,
				1.5269743204116821
			],
			"translation":[
				34.476966857910156,
				8.736175537109375,
				6.579532146453857
			]
		},
		{
			"mesh":6,
			"name":"\u5899B1",
			"scale":[
				36.11016082763672,
				10.330100059509277,
				1.5269750356674194
			],
			"translation":[
				0,
				8.736175537109375,
				38.060699462890625
			]
		},
		{
			"mesh":7,
			"name":"\u95e8B",
			"translation":[
				0,
				-3.213901996612549,
				0
			]
		},
		{
			"children":[
				7
			],
			"mesh":8,
			"name":"\u95e8A",
			"rotation":[
				0.7071068286895752,
				0,
				0,
				0.7071068286895752
			],
			"scale":[
				4.233631610870361,
				1,
				7.438458442687988
			],
			"translation":[
				24.655975341796875,
				9.621842384338379,
				39.66405487060547
			]
		}
	],
	"materials":[
		{
			"doubleSided":true,
			"name":"\u6750\u8d28.019",
			"pbrMetallicRoughness":{
				"baseColorTexture":{
					"index":0
				},
				"metallicFactor":0,
				"roughnessFactor":0.5
			}
		},
		{
			"doubleSided":true,
			"name":"\u6750\u8d28.020",
			"pbrMetallicRoughness":{
				"baseColorTexture":{
					"index":1
				},
				"metallicFactor":0,
				"roughnessFactor":0.5
			}
		},
		{
			"doubleSided":true,
			"extensions":{
				"KHR_materials_specular":{
					"specularColorFactor":[
						0,
						0,
						0
					]
				}
			},
			"name":"\u6750\u8d28.054",
			"pbrMetallicRoughness":{
				"baseColorTexture":{
					"index":2
				},
				"metallicFactor":0,
				"roughnessFactor":0.3291139304637909
			}
		},
		{
			"doubleSided":true,
			"extensions":{
				"KHR_materials_specular":{
					"specularColorFactor":[
						0.03094239895242479,
						0.03094239895242479,
						0.03094239895242479
					]
				},
				"KHR_materials_ior":{
					"ior":3.999999761581421
				}
			},
			"name":"\u6750\u8d28.055",
			"pbrMetallicRoughness":{
				"metallicFactor":0.10126582533121109,
				"roughnessFactor":0.12025317549705505
			}
		},
		{
			"doubleSided":true,
			"name":"\u6750\u8d28.056",
			"pbrMetallicRoughness":{
				"baseColorFactor":[
					0.6724424362182617,
					0.6866846680641174,
					0.7304609417915344,
					1
				],
				"metallicFactor":0,
				"roughnessFactor":0.5
			}
		},
		{
			"doubleSided":true,
			"name":"\u6750\u8d28.057",
			"pbrMetallicRoughness":{
				"baseColorFactor":[
					0.6724424362182617,
					0.6866846680641174,
					0.7304609417915344,
					1
				],
				"metallicFactor":0,
				"roughnessFactor":0.5
			}
		},
		{
			"doubleSided":true,
			"name":"\u6750\u8d28.058",
			"pbrMetallicRoughness":{
				"baseColorFactor":[
					0.6724424362182617,
					0.6866846680641174,
					0.7304609417915344,
					1
				],
				"metallicFactor":0,
				"roughnessFactor":0.5
			}
		},
		{
			"doubleSided":true,
			"name":"\u6750\u8d28.059",
			"pbrMetallicRoughness":{
				"baseColorFactor":[
					0.6724424362182617,
					0.6866846680641174,
					0.7304609417915344,
					1
				],
				"metallicFactor":0,
				"roughnessFactor":0.5
			}
		},
		{
			"doubleSided":true,
			"name":"\u6750\u8d28.061",
			"pbrMetallicRoughness":{
				"baseColorTexture":{
					"index":3
				},
				"metallicFactor":0,
				"roughnessFactor":0.5
			}
		},
		{
			"doubleSided":true,
			"name":"\u6750\u8d28.060",
			"pbrMetallicRoughness":{
				"baseColorTexture":{
					"index":4
				},
				"metallicFactor":0,
				"roughnessFactor":0.5
			}
		}
	],
	"meshes":[
		{
			"name":"\u7a7a\u8c032.001",
			"primitives":[
				{
					"attributes":{
						"POSITION":0,
						"TEXCOORD_0":1,
						"NORMAL":2
					},
					"indices":3,
					"material":0
				}
			]
		},
		{
			"name":"\u7a7a\u8c031.001",
			"primitives":[
				{
					"attributes":{
						"POSITION":4,
						"TEXCOORD_0":5,
						"NORMAL":6
					},
					"indices":3,
					"material":1
				}
			]
		},
		{
			"name":"\u5730\u9762.001",
			"primitives":[
				{
					"attributes":{
						"POSITION":7,
						"TEXCOORD_0":8,
						"TEXCOORD_1":9,
						"NORMAL":10
					},
					"indices":11,
					"material":2
				},
				{
					"attributes":{
						"POSITION":12,
						"TEXCOORD_0":13,
						"TEXCOORD_1":14,
						"NORMAL":15
					},
					"indices":16,
					"material":3
				}
			]
		},
		{
			"name":"\u5899A2.001",
			"primitives":[
				{
					"attributes":{
						"POSITION":17,
						"TEXCOORD_0":18,
						"NORMAL":19
					},
					"indices":11,
					"material":4
				}
			]
		},
		{
			"name":"\u5899B2.001",
			"primitives":[
				{
					"attributes":{
						"POSITION":20,
						"TEXCOORD_0":21,
						"NORMAL":22
					},
					"indices":11,
					"material":5
				}
			]
		},
		{
			"name":"\u5899A1.001",
			"primitives":[
				{
					"attributes":{
						"POSITION":23,
						"TEXCOORD_0":24,
						"NORMAL":25
					},
					"indices":11,
					"material":6
				}
			]
		},
		{
			"name":"\u5899B1.001",
			"primitives":[
				{
					"attributes":{
						"POSITION":26,
						"TEXCOORD_0":27,
						"NORMAL":28
					},
					"indices":11,
					"material":7
				}
			]
		},
		{
			"name":"\u95e8B",
			"primitives":[
				{
					"attributes":{
						"POSITION":29,
						"TEXCOORD_0":30,
						"NORMAL":31
					},
					"indices":32,
					"material":8
				}
			]
		},
		{
			"name":"\u95e8A",
			"primitives":[
				{
					"attributes":{
						"POSITION":33,
						"TEXCOORD_0":34,
						"NORMAL":35
					},
					"indices":32,
					"material":9
				}
			]
		}
	],
	"textures":[
		{
			"sampler":0,
			"source":0
		},
		{
			"sampler":0,
			"source":0
		},
		{
			"sampler":0,
			"source":1
		},
		{
			"sampler":0,
			"source":2
		},
		{
			"sampler":0,
			"source":2
		}
	],
	"images":[
		{
			"bufferView":4,
			"mimeType":"image/png",
			"name":"\u5c4f\u5e55\u622a\u56fe 2023-08-14 211429"
		},
		{
			"bufferView":13,
			"mimeType":"image/png",
			"name":"\u6d45\u8272\u5927\u7406\u77f3\u7eb9\u80cc\u666f"
		},
		{
			"bufferView":35,
			"mimeType":"image/jpeg",
			"name":"\u95e8"
		}
	],
	"accessors":[
		{
			"bufferView":0,
			"componentType":5126,
			"count":24,
			"max":[
				1,
				1,
				1
			],
			"min":[
				-1,
				-1,
				-1
			],
			"type":"VEC3"
		},
		{
			"bufferView":1,
			"componentType":5126,
			"count":24,
			"type":"VEC2"
		},
		{
			"bufferView":2,
			"componentType":5126,
			"count":24,
			"type":"VEC3"
		},
		{
			"bufferView":3,
			"componentType":5123,
			"count":36,
			"type":"SCALAR"
		},
		{
			"bufferView":5,
			"componentType":5126,
			"count":24,
			"max":[
				1,
				1,
				1
			],
			"min":[
				-1,
				-1,
				-1
			],
			"type":"VEC3"
		},
		{
			"bufferView":6,
			"componentType":5126,
			"count":24,
			"type":"VEC2"
		},
		{
			"bufferView":7,
			"componentType":5126,
			"count":24,
			"type":"VEC3"
		},
		{
			"bufferView":8,
			"componentType":5126,
			"count":24,
			"max":[
				1,
				1,
				1
			],
			"min":[
				-1,
				-1,
				-1
			],
			"type":"VEC3"
		},
		{
			"bufferView":9,
			"componentType":5126,
			"count":24,
			"type":"VEC2"
		},
		{
			"bufferView":10,
			"componentType":5126,
			"count":24,
			"type":"VEC2"
		},
		{
			"bufferView":11,
			"componentType":5126,
			"count":24,
			"type":"VEC3"
		},
		{
			"bufferView":12,
			"componentType":5123,
			"count":36,
			"type":"SCALAR"
		},
		{
			"bufferView":14,
			"componentType":5126,
			"count":6398,
			"max":[
				1.0194861888885498,
				5.321475028991699,
				1.0249738693237305
			],
			"min":[
				-1.0194861888885498,
				-0.4456789493560791,
				-1.0260268449783325
			],
			"type":"VEC3"
		},
		{
			"bufferView":15,
			"componentType":5126,
			"count":6398,
			"type":"VEC2"
		},
		{
			"bufferView":16,
			"componentType":5126,
			"count":6398,
			"type":"VEC2"
		},
		{
			"bufferView":17,
			"componentType":5126,
			"count":6398,
			"type":"VEC3"
		},
		{
			"bufferView":18,
			"componentType":5123,
			"count":8424,
			"type":"SCALAR"
		},
		{
			"bufferView":19,
			"componentType":5126,
			"count":24,
			"max":[
				1,
				1,
				1
			],
			"min":[
				-1,
				-1,
				-1
			],
			"type":"VEC3"
		},
		{
			"bufferView":20,
			"componentType":5126,
			"count":24,
			"type":"VEC2"
		},
		{
			"bufferView":21,
			"componentType":5126,
			"count":24,
			"type":"VEC3"
		},
		{
			"bufferView":22,
			"componentType":5126,
			"count":24,
			"max":[
				1,
				1,
				1
			],
			"min":[
				-1,
				-1,
				-1
			],
			"type":"VEC3"
		},
		{
			"bufferView":23,
			"componentType":5126,
			"count":24,
			"type":"VEC2"
		},
		{
			"bufferView":24,
			"componentType":5126,
			"count":24,
			"type":"VEC3"
		},
		{
			"bufferView":25,
			"componentType":5126,
			"count":24,
			"max":[
				1,
				1,
				1
			],
			"min":[
				-1,
				-1,
				-1
			],
			"type":"VEC3"
		},
		{
			"bufferView":26,
			"componentType":5126,
			"count":24,
			"type":"VEC2"
		},
		{
			"bufferView":27,
			"componentType":5126,
			"count":24,
			"type":"VEC3"
		},
		{
			"bufferView":28,
			"componentType":5126,
			"count":24,
			"max":[
				1,
				1,
				1
			],
			"min":[
				-1,
				-1,
				-1
			],
			"type":"VEC3"
		},
		{
			"bufferView":29,
			"componentType":5126,
			"count":24,
			"type":"VEC2"
		},
		{
			"bufferView":30,
			"componentType":5126,
			"count":24,
			"type":"VEC3"
		},
		{
			"bufferView":31,
			"componentType":5126,
			"count":4,
			"max":[
				1,
				0,
				1
			],
			"min":[
				-1,
				0,
				-1
			],
			"type":"VEC3"
		},
		{
			"bufferView":32,
			"componentType":5126,
			"count":4,
			"type":"VEC2"
		},
		{
			"bufferView":33,
			"componentType":5126,
			"count":4,
			"type":"VEC3"
		},
		{
			"bufferView":34,
			"componentType":5123,
			"count":6,
			"type":"SCALAR"
		},
		{
			"bufferView":36,
			"componentType":5126,
			"count":4,
			"max":[
				1,
				0,
				1
			],
			"min":[
				-1,
				0,
				-1
			],
			"type":"VEC3"
		},
		{
			"bufferView":37,
			"componentType":5126,
			"count":4,
			"type":"VEC2"
		},
		{
			"bufferView":38,
			"componentType":5126,
			"count":4,
			"type":"VEC3"
		}
	],
	"bufferViews":[
		{
			"buffer":0,
			"byteLength":288,
			"byteOffset":0,
			"target":34962
		},
		{
			"buffer":0,
			"byteLength":192,
			"byteOffset":288,
			"target":34962
		},
		{
			"buffer":0,
			"byteLength":288,
			"byteOffset":480,
			"target":34962
		},
		{
			"buffer":0,
			"byteLength":72,
			"byteOffset":768,
			"target":34963
		},
		{
			"buffer":0,
			"byteLength":15796,
			"byteOffset":840
		},
		{
			"buffer":0,
			"byteLength":288,
			"byteOffset":16636,
			"target":34962
		},
		{
			"buffer":0,
			"byteLength":192,
			"byteOffset":16924,
			"target":34962
		},
		{
			"buffer":0,
			"byteLength":288,
			"byteOffset":17116,
			"target":34962
		},
		{
			"buffer":0,
			"byteLength":288,
			"byteOffset":17404,
			"target":34962
		},
		{
			"buffer":0,
			"byteLength":192,
			"byteOffset":17692,
			"target":34962
		},
		{
			"buffer":0,
			"byteLength":192,
			"byteOffset":17884,
			"target":34962
		},
		{
			"buffer":0,
			"byteLength":288,
			"byteOffset":18076,
			"target":34962
		},
		{
			"buffer":0,
			"byteLength":72,
			"byteOffset":18364,
			"target":34963
		},
		{
			"buffer":0,
			"byteLength":420443,
			"byteOffset":18436
		},
		{
			"buffer":0,
			"byteLength":76776,
			"byteOffset":438880,
			"target":34962
		},
		{
			"buffer":0,
			"byteLength":51184,
			"byteOffset":515656,
			"target":34962
		},
		{
			"buffer":0,
			"byteLength":51184,
			"byteOffset":566840,
			"target":34962
		},
		{
			"buffer":0,
			"byteLength":76776,
			"byteOffset":618024,
			"target":34962
		},
		{
			"buffer":0,
			"byteLength":16848,
			"byteOffset":694800,
			"target":34963
		},
		{
			"buffer":0,
			"byteLength":288,
			"byteOffset":711648,
			"target":34962
		},
		{
			"buffer":0,
			"byteLength":192,
			"byteOffset":711936,
			"target":34962
		},
		{
			"buffer":0,
			"byteLength":288,
			"byteOffset":712128,
			"target":34962
		},
		{
			"buffer":0,
			"byteLength":288,
			"byteOffset":712416,
			"target":34962
		},
		{
			"buffer":0,
			"byteLength":192,
			"byteOffset":712704,
			"target":34962
		},
		{
			"buffer":0,
			"byteLength":288,
			"byteOffset":712896,
			"target":34962
		},
		{
			"buffer":0,
			"byteLength":288,
			"byteOffset":713184,
			"target":34962
		},
		{
			"buffer":0,
			"byteLength":192,
			"byteOffset":713472,
			"target":34962
		},
		{
			"buffer":0,
			"byteLength":288,
			"byteOffset":713664,
			"target":34962
		},
		{
			"buffer":0,
			"byteLength":288,
			"byteOffset":713952,
			"target":34962
		},
		{
			"buffer":0,
			"byteLength":192,
			"byteOffset":714240,
			"target":34962
		},
		{
			"buffer":0,
			"byteLength":288,
			"byteOffset":714432,
			"target":34962
		},
		{
			"buffer":0,
			"byteLength":48,
			"byteOffset":714720,
			"target":34962
		},
		{
			"buffer":0,
			"byteLength":32,
			"byteOffset":714768,
			"target":34962
		},
		{
			"buffer":0,
			"byteLength":48,
			"byteOffset":714800,
			"target":34962
		},
		{
			"buffer":0,
			"byteLength":12,
			"byteOffset":714848,
			"target":34963
		},
		{
			"buffer":0,
			"byteLength":82887,
			"byteOffset":714860
		},
		{
			"buffer":0,
			"byteLength":48,
			"byteOffset":797748,
			"target":34962
		},
		{
			"buffer":0,
			"byteLength":32,
			"byteOffset":797796,
			"target":34962
		},
		{
			"buffer":0,
			"byteLength":48,
			"byteOffset":797828,
			"target":34962
		}
	],
	"samplers":[
		{
			"magFilter":9729,
			"minFilter":9987
		}
	],
	"buffers":[
		{
			"byteLength":797876,
			"uri":"data:application/octet-stream;base64,"
		}
	]
}
